<svg t="1777355576042" class="icon" viewBox="0 0 1024 1024" version="1.1" xmlns="http://www.w3.org/2000/svg" p-id="9826" width="256" height="256"><path d="M968.874667 895.488H719.36a37.632 37.632 0 0 1-32.938667-15.445333c-52.608-61.226667-106.581333-122.88-160.213333-184.576a17.792 17.792 0 0 0-26.88 0.042666c-54.528 62.933333-108.970667 125.141333-162.986667 187.733334a18.261333 18.261333 0 0 0-1.109333 1.408 27.093333 27.093333 0 0 1-22.314667 11.349333H54.186667a8.874667 8.874667 0 0 1-8.021334-5.034667 8.661333 8.661333 0 0 1 1.237334-9.301333c10.581333-12.544 20.650667-24.277333 30.677333-36.010667 5.12-6.016 12.245333-4.010667 18.346667-4.010666 29.098667 0 57.642667-1.024 86.741333 0 14.805333 2.218667 29.568-4.266667 37.76-16.64 4.821333-6.229333 9.813333-12.373333 14.933333-18.346667a8.661333 8.661333 0 0 0 1.322667-9.301333 8.874667 8.874667 0 0 0-8.021333-5.077334H144.64a8.874667 8.874667 0 0 1-8.021333-5.034666 8.661333 8.661333 0 0 1 1.237333-9.301334c8.789333-10.368 17.450667-20.906667 25.941333-31.488 5.717333-6.016 12.8-5.034667 20.010667-5.034666 29.610667 0 59.178667-0.981333 88.746667 0a37.077333 37.077333 0 0 0 34.602666-15.488c5.077333-6.613333 10.368-13.098667 15.829334-19.370667a8.618667 8.618667 0 0 0 1.365333-9.344 8.832 8.832 0 0 0-8.064-5.12H231.168a8.874667 8.874667 0 0 1-7.509333-4.053333 8.618667 8.618667 0 0 1-0.426667-8.490667c12.202667-24.490667 37.376-40.106667 65.024-40.32H336.213333c48.042667 0 54.186667-0.810667 77.397334-35.84a8.661333 8.661333 0 0 0 0.426666-8.917333 8.874667 8.874667 0 0 0-7.808-4.565334H320a8.874667 8.874667 0 0 1-8.021333-5.077333 8.661333 8.661333 0 0 1 1.237333-9.301333l28.586667-33.536c5.077333-5.973333 12.202667-4.010667 18.346666-4.010667h95.445334c11.178667 0 35.2-17.621333 35.2-25.685333 0-7.509333-24.490667-24.661333-35.754667-25.173334-29.056 0-58.154667-0.512-87.253333 0a37.76 37.76 0 0 1-37.717334-17.109333 190.805333 190.805333 0 0 0-15.872-19.2 8.661333 8.661333 0 0 1-1.493333-9.429333 8.874667 8.874667 0 0 1 8.106667-5.162667h85.546666c3.413333 0 6.570667-2.005333 8.021334-5.12a8.661333 8.661333 0 0 0-1.28-9.301333c-9.002667-10.496-17.066667-19.968-24.874667-29.44-5.12-6.997333-12.245333-5.973333-19.413333-5.973334-29.056 0-57.642667-1.024-86.741334 0a40.192 40.192 0 0 1-38.229333-16.64c-5.034667-6.826667-10.624-13.226667-16.768-20.352a8.661333 8.661333 0 0 1-1.322667-9.301333 8.874667 8.874667 0 0 1 8.021334-5.12h85.205333c3.413333 0 6.613333-1.962667 8.021333-5.077333a8.618667 8.618667 0 0 0-1.28-9.301334c-10.197333-11.818667-19.114667-22.272-28.288-32.426666-4.650667-6.016-11.733333-4.010667-18.346666-4.010667-28.586667 0-57.728-1.024-86.784 0a39.594667 39.594667 0 0 1-37.76-17.408 190.293333 190.293333 0 0 0-15.402667-18.645333 8.661333 8.661333 0 0 1-1.493333-9.386667 8.874667 8.874667 0 0 1 8.106666-5.162667h84.906667a8.874667 8.874667 0 0 0 8.021333-5.12 8.661333 8.661333 0 0 0-1.322666-9.344l-28.202667-32.384c-5.12-5.632-12.288-3.498667-18.389333-3.498666-29.610667 0-59.178667-0.512-88.746667 0a33.578667 33.578667 0 0 1-32.682667-14.634667 416.341333 416.341333 0 0 0-25.173333-29.952 5.802667 5.802667 0 0 1-0.981333-6.4 5.973333 5.973333 0 0 1 5.632-3.413333h260.821333a32.554667 32.554667 0 0 1 26.538667 13.098666C389.973333 204.288 444.16 266.24 498.858667 328.96a17.834667 17.834667 0 0 0 26.794666 0.085333c48.64-55.168 97.450667-109.738667 143.744-165.973333a83.968 83.968 0 0 1 75.52-34.773333c74.410667 2.816 148.437333 1.28 225.621334 1.066666 3.413333 0 6.570667 1.962667 8.021333 5.034667a8.618667 8.618667 0 0 1-1.28 9.386667c-24.832 28.672-230.869333 266.538667-309.930667 355.584-10.709333 12.586667-4.096 18.645333 3.029334 26.709333 102.4 117.034667 204.245333 234.496 308.821333 354.730667a8.661333 8.661333 0 0 1 1.450667 9.088c-1.28 3.072-4.266667 5.12-7.637334 5.333333l-4.138666 0.256z" fill="#1296db" p-id="9827"></path></svg>